<svg id="레이어_1" data-name="레이어 1" xmlns="http://www.w3.org/2000/svg" viewBox="0 0 3000 3000"><defs><style>.cls-1{fill:#fffffb;}</style></defs><title>대지 1new</title><path class="cls-1" d="M1376.86,2172.68a163.91,163.91,0,0,0,24.63,20c1.56,1,3.19,1.92,4.78,2.91a158.08,158.08,0,0,0,23.46,12.11c1.64.68,3.24,1.37,4.89,2a159.14,159.14,0,0,0,24.12,7c2.28.5,4.48,1.2,6.77,1.61.26,0,.52,0,.78.07,52.87,9.17,109.68-5.86,149.45-45.63l662.18-662.18c153.93-153.93-84.89-392.88-238.88-238.88l-373.83,373.82V365c0-217.38-337.83-217.74-337.83,0v1280.4L953.56,1271.62c-153.94-153.94-392.88,84.88-238.89,238.88Z"/><path class="cls-1" d="M279.59,2798.13H2720.41c91.31,0,168.92-77.39,168.92-168.92v-791.6c0-217.38-337.84-217.74-337.84,0V2460.3h-2103V1834c0-217.38-337.84-217.74-337.84,0v795.19C110.67,2720.53,188.06,2798.13,279.59,2798.13Z"/></svg>