<svg id="레이어_1" data-name="레이어 1" xmlns="http://www.w3.org/2000/svg" viewBox="0 0 3000 3000"><defs><style>.cls-1{fill:#fffffb;}</style></defs><title>대지 1new</title><path class="cls-1" d="M2632.56,1750.18v675.27H367.44v-679.1c0-217.38-337.84-217.74-337.84,0v848c0,91.31,77.39,168.91,168.92,168.91h2603c91.31,0,168.92-77.39,168.92-168.91V1750.18C2970.4,1532.8,2632.56,1532.44,2632.56,1750.18Z"/><path class="cls-1" d="M910.14,1943.91,1500,1354.06q294.93,294.92,589.85,589.85c153.93,153.93,392.88-84.89,238.88-238.89q-294.93-294.91-589.84-589.85l589.84-589.85c153.93-153.93-84.88-392.88-238.88-238.89L1500,876.29,910.14,286.43C756.22,132.5,517.26,371.32,671.27,525.32l589.84,589.85L671.27,1705C517.33,1859,756.15,2097.91,910.14,1943.91Z"/></svg>