<svg id="레이어_1" data-name="레이어 1" xmlns="http://www.w3.org/2000/svg" viewBox="0 0 5000 5000"><defs><style>.cls-1{fill:#fffffb;}</style></defs><title>대지 1new</title><circle class="cls-1" cx="1097.4" cy="2236.43" r="173.76"/><path class="cls-1" d="M4282.63,1662.1c-287.75-218.35-647.61-301.3-1003.4-317.44C3196.82,1029.44,3021,738.6,2766.54,526.61,2474.07,283,2112.8,150.53,1732,146.86,870.31,155.17,111.91,873.55,131.11,1753.26c-.06,1.75-.28,3.47-.28,5.24V4654.42c0,82.84,70.22,153.24,153.25,153.24h2301.6c.35,0,.66,0,1-.05a142.61,142.61,0,0,0,105.5-43.16c.61-.59,1.24-1.06,1.85-1.67l602.05-602.06,201,201,362.14,362.15c43.69,43.68,78.6,79.08,147.95,83.77,59.28,4,120.16,0,179.53,0h582.81c82.84,0,153.25-70.21,153.25-153.24V3364.37C4922.79,2743.32,4808.19,2060.91,4282.63,1662.1ZM1578.8,4501.18H437.32V1767c.1-2.82.34-5.62.26-8.46C419.46,1043.22,1031.07,460.1,1732,453.34c534,5.15,1033.6,338.48,1215.78,847.12,184.58,515.34,29.24,1090.29-387.9,1443.77-230.6,195.4-527.62,295.66-827.88,298.55-82.83.8-153.24,69.57-153.24,153.24Zm3037.5-472.36v472.36H4070Q3791.4,4222.6,3512.81,3944l325.64-325.64c139.65-139.65-77-356.43-216.72-216.72l-325.64,325.64L2999.2,3430.4c-139.65-139.65-356.42,77-216.72,216.72L3079.38,3944,2522.2,4501.18H1885.28V3340.29c605.25-63,1129.76-460.82,1348.74-1037.83,79-208.23,109.1-429.82,95.08-648.31,262,18.22,520.46,80.09,740.77,230.44,228.16,155.72,371.32,402.93,448.87,663.27C4659.63,3020.86,4616.3,3540.53,4616.3,4028.82Z"/></svg>