<svg id="레이어_1" data-name="레이어 1" xmlns="http://www.w3.org/2000/svg" viewBox="0 0 5000 1869.51"><defs><style>.cls-1{fill:#fffffb;}</style></defs><title>대지 1new</title><path class="cls-1" d="M1116.56,997c0,252.64-183.13,447.62-405.23,447.62-113.6,0-196.68-39-252.64-103.44v418.8H204.37V573.07H458.69v79.69c56-64.44,139-103.42,252.64-103.42C933.43,549.34,1116.56,744.32,1116.56,997Zm-254.33,0c0-127.16-84.78-206.86-201.77-206.86S458.69,869.79,458.69,997s84.78,206.85,201.77,206.85S862.23,1124.11,862.23,997Z"/><path class="cls-1" d="M1235.25,345.88c0-83.08,69.52-152.6,152.6-152.6s152.59,69.52,152.59,152.6-69.51,152.6-152.59,152.6S1235.25,429,1235.25,345.88Zm25.43,227.19H1515v847.76H1260.68Z"/><path class="cls-1" d="M2215.26,1420.83,2057.58,1197,1899.9,1420.83H1608.27l303.5-430.67L1618.45,573.07h291.62l147.51,210.25L2205.1,573.07h291.62L2203.4,990.16l303.49,430.67Z"/><path class="cls-1" d="M2971.5,1217.38c69.52,0,128.87-27.15,162.78-64.44l203.45,117c-83.08,115.3-208.55,174.64-369.61,174.64-289.94,0-469.66-195-469.66-447.62s183.11-447.61,451-447.61c247.54,0,430.65,191.58,430.65,447.61A493.1,493.1,0,0,1,3370,1098.69H2768.05C2800.26,1186.85,2878.25,1217.38,2971.5,1217.38Zm156-308.6c-27.13-98.34-103.43-133.95-179.73-133.95-96.64,0-161.08,47.48-184.81,133.95Z"/><path class="cls-1" d="M3524.26,183.11h254.32V1420.83H3524.26Z"/><path class="cls-1" d="M4395.75,1217.38c69.52,0,128.87-27.15,162.78-64.44l203.45,117c-83.08,115.3-208.54,174.64-369.61,174.64-289.94,0-469.66-195-469.66-447.62s183.11-447.61,451-447.61c247.54,0,430.65,191.58,430.65,447.61a492.41,492.41,0,0,1-10.17,101.74H4192.3C4224.51,1186.85,4302.5,1217.38,4395.75,1217.38Zm156-308.6c-27.13-98.34-103.43-133.95-179.73-133.95-96.64,0-161.08,47.48-184.81,133.95Z"/></svg>