<svg id="레이어_1" data-name="레이어 1" xmlns="http://www.w3.org/2000/svg" viewBox="0 0 5000 5000"><defs><style>.cls-1{fill:#fffffb;}.cls-2{fill:#fff;}</style></defs><title>대지 1new</title><circle class="cls-1" cx="1599.22" cy="1336.62" r="107.15"/><path class="cls-2" d="M3563.41,982.46C3386,847.82,3164.06,796.66,2944.65,786.71,2893.83,592.33,2785.44,413,2628.5,282.26,2448.15,132,2225.37,50.34,1990.57,48.08c-531.39,5.12-999.06,448.12-987.22,990.6,0,1.08-.17,2.14-.17,3.23V2827.7c0,51.08,43.29,94.49,94.5,94.49H2517c.22,0,.41,0,.63,0a87.87,87.87,0,0,0,65.05-26.61c.38-.37.77-.66,1.14-1l371.26-371.27,124,124,223.32,223.32c26.94,26.94,48.46,48.77,91.23,51.66,36.55,2.48,74.1,0,110.71,0h359.39c51.09,0,94.5-43.29,94.5-94.49V2032.18C3958.16,1649.2,3887.49,1228.39,3563.41,982.46ZM1896.07,2733.2h-703.9V1047.12c.07-1.73.21-3.46.17-5.21-11.18-441.09,366-800.67,798.23-804.84,329.32,3.18,637.38,208.73,749.72,522.39,113.82,317.78,18,672.33-239.2,890.3-142.2,120.5-325.36,182.32-510.52,184.11-51.08.49-94.5,42.9-94.5,94.5Zm1873.1-291.29V2733.2H3432.28l-343.59-343.59,200.81-200.8c86.11-86.12-47.49-219.79-133.64-133.64L2955.05,2256,2772,2072.89c-86.11-86.11-219.79,47.49-133.64,133.64l183.08,183.08L2477.83,2733.2H2085.07V2017.33c373.23-38.88,696.67-284.17,831.71-640,48.73-128.4,67.27-265,58.62-399.78,161.57,11.23,320.95,49.39,456.81,142.1,140.7,96,229,248.47,276.8,409C3795.89,1820.35,3769.17,2140.81,3769.17,2441.91Z"/><path class="cls-1" d="M1114,4192.31c0,252.63-183.12,447.61-405.23,447.61-113.59,0-196.67-39-252.63-103.43v418.79H201.86V3768.42H456.18v79.7c56-64.44,139-103.42,252.63-103.42C930.92,3744.7,1114,3939.68,1114,4192.31Zm-254.33,0c0-127.17-84.78-206.86-201.77-206.86s-201.76,79.69-201.76,206.86S541,4399.16,657.94,4399.16,859.71,4319.46,859.71,4192.31Z"/><path class="cls-1" d="M1232.73,3541.23c0-83.08,69.52-152.6,152.6-152.6s152.59,69.52,152.59,152.6-69.51,152.6-152.59,152.6S1232.73,3624.31,1232.73,3541.23Zm25.44,227.19h254.32v847.77H1258.17Z"/><path class="cls-1" d="M2212.74,4616.19l-157.68-223.81-157.68,223.81H1605.75l303.51-430.67-293.33-417.1h291.63l147.5,210.26,147.52-210.26h291.63l-293.33,417.1,303.49,430.67Z"/><path class="cls-1" d="M2969,4412.73c69.52,0,128.86-27.14,162.77-64.44l203.46,117c-83.08,115.31-208.55,174.64-369.62,174.64-289.94,0-469.66-195-469.66-447.61s183.12-447.61,451-447.61c247.54,0,430.66,191.58,430.66,447.61A492.93,492.93,0,0,1,3367.44,4294H2765.53C2797.75,4382.2,2875.73,4412.73,2969,4412.73Zm156-308.59c-27.13-98.34-103.43-134-179.73-134-96.64,0-161.08,47.47-184.81,134Z"/><path class="cls-1" d="M3521.74,3378.47h254.32V4616.19H3521.74Z"/><path class="cls-1" d="M4393.24,4412.73c69.52,0,128.86-27.14,162.77-64.44l203.46,117c-83.08,115.31-208.55,174.64-369.62,174.64-289.94,0-469.66-195-469.66-447.61s183.12-447.61,451-447.61c247.54,0,430.66,191.58,430.66,447.61A492.23,492.23,0,0,1,4791.68,4294h-601.9C4222,4382.2,4300,4412.73,4393.24,4412.73Zm156-308.59c-27.13-98.34-103.43-134-179.73-134-96.64,0-161.07,47.47-184.81,134Z"/></svg>