<svg id="레이어_1" data-name="레이어 1" xmlns="http://www.w3.org/2000/svg" viewBox="0 0 5000 5000"><defs><style>.cls-1{fill:#fffffb;}</style></defs><title>대지 1new</title><polygon class="cls-1" points="2764.56 2851.61 2869.57 1977.02 2870.07 1247.12 2140.67 1247.12 2140.67 1968.33 2246.04 2851.61 2764.56 2851.61"/><path class="cls-1" d="M2505.33,3098.4c-210,0-380.92,170.85-380.92,380.88s170.89,380.92,380.92,380.92,380.85-170.89,380.85-380.92S2715.36,3098.4,2505.33,3098.4Z"/><path class="cls-1" d="M2505.33,85.54C1166.09,85.54,76.58,1175.08,76.58,2514.29S1166.09,4943,2505.33,4943,4934.09,3853.5,4934.09,2514.29,3844.58,85.54,2505.33,85.54Zm0,4492.44C1367.42,4578,441.6,3652.2,441.6,2514.29S1367.42,450.56,2505.33,450.56s2063.73,925.78,2063.73,2063.73S3643.25,4578,2505.33,4578Z"/></svg>